<svg id="SvgjsSvg1567" width="459" height="150" xmlns="http://www.w3.org/2000/svg" version="1.1" xmlns:xlink="http://www.w3.org/1999/xlink" xmlns:svgjs="http://svgjs.com/svgjs" class="apexcharts-svg" xmlns:data="ApexChartsNS" transform="translate(0, 0)" style="background: transparent;"><g id="SvgjsG1569" class="apexcharts-inner apexcharts-graphical" transform="translate(0, 0)"><defs id="SvgjsDefs1568"><clipPath id="gridRectMaske5t1xm2th"><rect id="SvgjsRect1572" width="466" height="153" x="-3.5" y="-1.5" rx="0" ry="0" opacity="1" stroke-width="0" stroke="none" stroke-dasharray="0" fill="#fff"></rect></clipPath><clipPath id="gridRectMarkerMaske5t1xm2th"><rect id="SvgjsRect1573" width="463" height="154" x="-2" y="-2" rx="0" ry="0" opacity="1" stroke-width="0" stroke="none" stroke-dasharray="0" fill="#fff"></rect></clipPath><linearGradient id="SvgjsLinearGradient1578" x1="0" y1="0" x2="0" y2="1"><stop id="SvgjsStop1579" stop-opacity="0.7" stop-color="rgba(32,212,137,0.7)" offset="0"></stop><stop id="SvgjsStop1580" stop-opacity="0.6" stop-color="rgba(255,255,255,0.6)" offset="1"></stop><stop id="SvgjsStop1581" stop-opacity="0.6" stop-color="rgba(255,255,255,0.6)" offset="1"></stop></linearGradient></defs><g id="SvgjsG1584" class="apexcharts-xaxis" transform="translate(0, 0)"><g id="SvgjsG1585" class="apexcharts-xaxis-texts-g" transform="translate(0, -4)"></g></g><g id="SvgjsG1597" class="apexcharts-grid"><g id="SvgjsG1598" class="apexcharts-gridlines-horizontal" style="display: none;"><line id="SvgjsLine1600" x1="0" y1="0" x2="459" y2="0" stroke="#e0e0e0" stroke-dasharray="0" class="apexcharts-gridline"></line><line id="SvgjsLine1601" x1="0" y1="15" x2="459" y2="15" stroke="#e0e0e0" stroke-dasharray="0" class="apexcharts-gridline"></line><line id="SvgjsLine1602" x1="0" y1="30" x2="459" y2="30" stroke="#e0e0e0" stroke-dasharray="0" class="apexcharts-gridline"></line><line id="SvgjsLine1603" x1="0" y1="45" x2="459" y2="45" stroke="#e0e0e0" stroke-dasharray="0" class="apexcharts-gridline"></line><line id="SvgjsLine1604" x1="0" y1="60" x2="459" y2="60" stroke="#e0e0e0" stroke-dasharray="0" class="apexcharts-gridline"></line><line id="SvgjsLine1605" x1="0" y1="75" x2="459" y2="75" stroke="#e0e0e0" stroke-dasharray="0" class="apexcharts-gridline"></line><line id="SvgjsLine1606" x1="0" y1="90" x2="459" y2="90" stroke="#e0e0e0" stroke-dasharray="0" class="apexcharts-gridline"></line><line id="SvgjsLine1607" x1="0" y1="105" x2="459" y2="105" stroke="#e0e0e0" stroke-dasharray="0" class="apexcharts-gridline"></line><line id="SvgjsLine1608" x1="0" y1="120" x2="459" y2="120" stroke="#e0e0e0" stroke-dasharray="0" class="apexcharts-gridline"></line><line id="SvgjsLine1609" x1="0" y1="135" x2="459" y2="135" stroke="#e0e0e0" stroke-dasharray="0" class="apexcharts-gridline"></line><line id="SvgjsLine1610" x1="0" y1="150" x2="459" y2="150" stroke="#e0e0e0" stroke-dasharray="0" class="apexcharts-gridline"></line></g><g id="SvgjsG1599" class="apexcharts-gridlines-vertical" style="display: none;"></g><line id="SvgjsLine1612" x1="0" y1="150" x2="459" y2="150" stroke="transparent" stroke-dasharray="0"></line><line id="SvgjsLine1611" x1="0" y1="1" x2="0" y2="150" stroke="transparent" stroke-dasharray="0"></line></g><g id="SvgjsG1574" class="apexcharts-area-series apexcharts-plot-series"><g id="SvgjsG1575" class="apexcharts-series" seriesName="NetxProfit" data:longestSeries="true" rel="1" data:realIndex="0"><path id="SvgjsPath1582" d="M 0 150L 0 75C 17.849999999999998 75 33.150000000000006 75 51 75C 68.85 75 84.15 42.5 102 42.5C 119.85 42.5 135.15 42.5 153 42.5C 170.85 42.5 186.15 65 204 65C 221.85 65 237.15 65 255 65C 272.85 65 288.15 85 306 85C 323.85 85 339.15 85 357 85C 374.85 85 390.15 32.5 408 32.5C 425.85 32.5 441.15 32.5 459 32.5C 459 32.5 459 32.5 459 150M 459 32.5z" fill="url(#SvgjsLinearGradient1578)" fill-opacity="1" stroke-opacity="1" stroke-linecap="butt" stroke-width="0" stroke-dasharray="0" class="apexcharts-area" index="0" clip-path="url(#gridRectMaske5t1xm2th)" pathTo="M 0 150L 0 75C 17.849999999999998 75 33.150000000000006 75 51 75C 68.85 75 84.15 42.5 102 42.5C 119.85 42.5 135.15 42.5 153 42.5C 170.85 42.5 186.15 65 204 65C 221.85 65 237.15 65 255 65C 272.85 65 288.15 85 306 85C 323.85 85 339.15 85 357 85C 374.85 85 390.15 32.5 408 32.5C 425.85 32.5 441.15 32.5 459 32.5C 459 32.5 459 32.5 459 150M 459 32.5z" pathFrom="M -1 150L -1 150L 51 150L 102 150L 153 150L 204 150L 255 150L 306 150L 357 150L 408 150L 459 150"></path><path id="SvgjsPath1583" d="M 0 75C 17.849999999999998 75 33.150000000000006 75 51 75C 68.85 75 84.15 42.5 102 42.5C 119.85 42.5 135.15 42.5 153 42.5C 170.85 42.5 186.15 65 204 65C 221.85 65 237.15 65 255 65C 272.85 65 288.15 85 306 85C 323.85 85 339.15 85 357 85C 374.85 85 390.15 32.5 408 32.5C 425.85 32.5 441.15 32.5 459 32.5" fill="none" fill-opacity="1" stroke="#20d489" stroke-opacity="1" stroke-linecap="butt" stroke-width="3" stroke-dasharray="0" class="apexcharts-area" index="0" clip-path="url(#gridRectMaske5t1xm2th)" pathTo="M 0 75C 17.849999999999998 75 33.150000000000006 75 51 75C 68.85 75 84.15 42.5 102 42.5C 119.85 42.5 135.15 42.5 153 42.5C 170.85 42.5 186.15 65 204 65C 221.85 65 237.15 65 255 65C 272.85 65 288.15 85 306 85C 323.85 85 339.15 85 357 85C 374.85 85 390.15 32.5 408 32.5C 425.85 32.5 441.15 32.5 459 32.5" pathFrom="M -1 150L -1 150L 51 150L 102 150L 153 150L 204 150L 255 150L 306 150L 357 150L 408 150L 459 150"></path><g id="SvgjsG1576" class="apexcharts-series-markers-wrap" data:realIndex="0"><g class="apexcharts-series-markers"><circle id="SvgjsCircle1618" r="0" cx="0" cy="75" class="apexcharts-marker wcckvesk3 no-pointer-events" stroke="#20d489" fill="#e4fff4" fill-opacity="1" stroke-width="3" stroke-opacity="0.9" default-marker-size="0"></circle></g></g></g><g id="SvgjsG1577" class="apexcharts-datalabels" data:realIndex="0"></g></g><line id="SvgjsLine1613" x1="0" y1="0" x2="459" y2="0" stroke="#b6b6b6" stroke-dasharray="0" stroke-width="1" class="apexcharts-ycrosshairs"></line><line id="SvgjsLine1614" x1="0" y1="0" x2="459" y2="0" stroke-dasharray="0" stroke-width="0" class="apexcharts-ycrosshairs-hidden"></line><g id="SvgjsG1615" class="apexcharts-yaxis-annotations"></g><g id="SvgjsG1616" class="apexcharts-xaxis-annotations"></g><g id="SvgjsG1617" class="apexcharts-point-annotations"></g></g><g id="SvgjsG1596" class="apexcharts-yaxis" rel="0" transform="translate(-18, 0)"></g><g id="SvgjsG1570" class="apexcharts-annotations"></g></svg>